<svg id="Capa_1" enable-background="new 0 0 512 512" height="512" viewBox="0 0 512 512" width="512" xmlns="http://www.w3.org/2000/svg" xmlns:xlink="http://www.w3.org/1999/xlink"><linearGradient id="SVGID_1_" gradientUnits="userSpaceOnUse" x1="256" x2="256" y1="512" y2="0"><stop offset="0" stop-color="#5558ff"/><stop offset="1" stop-color="#00c0ff"/></linearGradient><g><g><path d="m286 121c-10.664 0-20.806 2.252-30 6.281-9.194-4.029-19.336-6.281-30-6.281-41.355 0-75 33.645-75 75s33.645 75 75 75c10.664 0 20.806-2.252 30-6.281 9.194 4.029 19.336 6.281 30 6.281 41.355 0 75-33.645 75-75s-33.645-75-75-75zm-59.96 119.999c-.013 0-.027.001-.04.001-24.813 0-45-20.187-45-45s20.187-45 45-45c.013 0 .027.001.04.001-9.437 12.544-15.04 28.128-15.04 44.999s5.603 32.455 15.04 44.999zm29.96-11.494c-9.199-8.245-15-20.209-15-33.505s5.801-25.26 15-33.505c9.199 8.245 15 20.209 15 33.505s-5.801 25.26-15 33.505zm30 11.495c-.013 0-.027-.001-.04-.001 9.437-12.544 15.04-28.128 15.04-44.999s-5.603-32.455-15.04-44.999c.013 0 .027-.001.04-.001 24.813 0 45 20.187 45 45s-20.187 45-45 45zm120-241h-60c-8.284 0-15 6.716-15 15 0 8.271-6.729 15-15 15s-15-6.729-15-15c0-8.284-6.716-15-15-15h-60c-8.284 0-15 6.716-15 15 0 8.271-6.729 15-15 15s-15-6.729-15-15c0-8.284-6.716-15-15-15h-60c-8.284 0-15 6.716-15 15v482c0 8.284 6.716 15 15 15h60c8.284 0 15-6.716 15-15 0-8.271 6.729-15 15-15s15 6.729 15 15c0 8.284 6.716 15 15 15h60c8.284 0 15-6.716 15-15 0-8.271 6.729-15 15-15s15 6.729 15 15c0 8.284 6.716 15 15 15h60c8.284 0 15-6.716 15-15v-482c0-8.284-6.716-15-15-15zm-15 482h-32.57c-6.19-17.461-22.873-30-42.43-30s-36.239 12.539-42.43 30h-35.14c-6.19-17.461-22.873-30-42.43-30s-36.239 12.539-42.43 30h-32.57v-452h32.57c6.19 17.461 22.873 30 42.43 30s36.239-12.539 42.43-30h35.141c6.19 17.461 22.873 30 42.43 30s36.239-12.539 42.43-30h32.569zm-45-181h-180c-8.284 0-15 6.716-15 15s6.716 15 15 15h180c8.284 0 15-6.716 15-15s-6.716-15-15-15zm-30 60h-120c-8.284 0-15 6.716-15 15s6.716 15 15 15h120c8.284 0 15-6.716 15-15s-6.716-15-15-15z" fill="url(#SVGID_1_)"/></g></g></svg>