<svg height="512" viewBox="0 0 512 512" width="512" xmlns="http://www.w3.org/2000/svg"><g><path d="m240 16h-64l-112 96v384h288v-384zm-32 64a24 24 0 1 1 -24 24 24.006 24.006 0 0 1 24-24zm-56 152a24 24 0 1 1 -24 24 24.006 24.006 0 0 1 24-24zm112 168a24 24 0 1 1 24-24 24.006 24.006 0 0 1 -24 24zm23.2-140.57-135.77 135.77a16 16 0 0 1 -22.63-22.63l135.77-135.77a16 16 0 0 1 22.63 22.63z" fill="#57a4ff"/><g fill="#004fac"><path d="m288 456h-192a8 8 0 0 0 0 16h192a8 8 0 0 0 0-16z"/><path d="m312 472h8a8 8 0 0 0 0-16h-8a8 8 0 0 0 0 16z"/><path d="m448 184q-15.09 0-29.83-.68a115.523 115.523 0 0 0 -6.48-9.66c-12.35-16.54-29.74-30.98-51.69-42.95v-18.71a7.992 7.992 0 0 0 -2.79-6.07l-112-96a7.975 7.975 0 0 0 -5.21-1.93h-64a7.975 7.975 0 0 0 -5.21 1.93l-112 96a7.992 7.992 0 0 0 -2.79 6.07v384a8 8 0 0 0 8 8h288a8 8 0 0 0 8-8v-301.99c15.57 2.21 31.77 3.82 48.4 4.81a77.024 77.024 0 0 1 7.6 33.18 8 8 0 0 0 16 0 91.38 91.38 0 0 0 -5.92-32.36q10.875.345 21.92.36a8 8 0 0 0 0-16zm-104-8.75c-23.07-4.14-44.34-9.68-62.99-16.52-23.82-8.73-41.77-19.07-52.71-30.01a31.985 31.985 0 1 0 -20.3 7.28 31.347 31.347 0 0 0 4.97-.39c12.45 14.52 33.64 27.55 62.53 38.14 20.25 7.42 43.4 13.38 68.5 17.74v296.51h-272v-372.32l106.96-91.68h58.08l106.96 91.68zm-120-71.25a15.961 15.961 0 0 1 -5.19 11.77 27.41 27.41 0 0 1 -2.81-11.77v-13.83a15.991 15.991 0 0 1 8 13.83zm-21.14 15.14a15.97 15.97 0 0 1 -2.86-28.97v13.83a42.128 42.128 0 0 0 2.86 15.14zm157.14 58.71v-28.69c16.01 9.71 28.81 20.81 38.1 32.92-13.06-1.01-25.79-2.43-38.1-4.23z"/><path d="m123.146 366.912a24.03 24.03 0 0 0 0 33.941 24.034 24.034 0 0 0 33.942 0l135.766-135.765a24 24 0 0 0 -33.943-33.942zm158.393-124.452a8.01 8.01 0 0 1 0 11.314l-135.764 135.765a8 8 0 1 1 -11.314-11.313l135.764-135.765a8.012 8.012 0 0 1 11.314-.001z"/><path d="m152 288a32 32 0 1 0 -32-32 32.036 32.036 0 0 0 32 32zm0-48a16 16 0 1 1 -16 16 16.019 16.019 0 0 1 16-16z"/><path d="m264 344a32 32 0 1 0 32 32 32.036 32.036 0 0 0 -32-32zm0 48a16 16 0 1 1 16-16 16.019 16.019 0 0 1 -16 16z"/></g></g></svg>